<!--Scalable Vector Graphic-->
<svg width="39" height="39" viewBox="0 0 39 39" fill="none" xmlns="http://www.w3.org/2000/svg">
<path fill-rule="evenodd" clip-rule="evenodd" d="M14.5026 12.3071C12.0788 12.3071 10.1801 14.2061 10.1801 16.6304C10.1801 16.9174 10.4128 17.1504 10.7001 17.1504C10.9871 17.1504 11.2201 16.9174 11.2201 16.6304C11.2201 14.7891 12.6618 13.3471 14.5026 13.3471C14.7896 13.3471 15.0226 13.1141 15.0226 12.8271C15.0226 12.5398 14.7896 12.3071 14.5026 12.3071ZM19.5 0C8.73054 0 0 8.73054 0 19.5C0 30.2695 8.73054 39 19.5 39C30.2695 39 39 30.2695 39 19.5C39 8.73054 30.2695 0 19.5 0ZM19.5 37.96C9.321 37.96 1.04 29.679 1.04 19.5C1.04 9.321 9.321 1.04 19.5 1.04C29.6787 1.04 37.96 9.32126 37.96 19.5C37.96 29.679 29.6787 37.96 19.5 37.96ZM24.5339 9.90496C22.6684 9.90496 20.827 10.6818 19.5 12.0065C18.173 10.6818 16.3314 9.90496 14.4661 9.90496C10.7281 9.90496 7.8 12.8339 7.8 16.5727C7.8 21.087 11.6758 24.8539 17.6007 30.0958L19.1675 31.3994C19.2637 31.4795 19.382 31.5198 19.5 31.5198C19.618 31.5198 19.7363 31.4795 19.8328 31.3994L21.411 30.0856C27.3239 24.8539 31.2 21.087 31.2 16.5727C31.2 12.8339 28.2719 9.90496 24.5339 9.90496ZM20.734 29.2965L19.5 30.3233L18.278 29.3067C12.752 24.4171 8.84 20.6417 8.84 16.5727C8.84 13.417 11.3113 10.945 14.4661 10.945C16.1972 10.945 17.9738 11.7744 19.103 13.1092C19.3006 13.3427 19.6994 13.3427 19.897 13.1092C21.0262 11.7744 22.8028 10.945 24.5339 10.945C27.6887 10.945 30.16 13.417 30.16 16.5727C30.16 20.6417 26.2483 24.4171 20.734 29.2965Z" fill="#2E71F2"/>
</svg>
